<?xml version="1.0" standalone="no"?>
<!DOCTYPE svg PUBLIC "-//W3C//DTD SVG 20010904//EN"
 "http://www.w3.org/TR/2001/REC-SVG-20010904/DTD/svg10.dtd">
<svg version="1.0" xmlns="http://www.w3.org/2000/svg"
 width="1024.000000pt" height="1024.000000pt" viewBox="0 0 1024.000000 1024.000000"
 preserveAspectRatio="xMidYMid meet">
<metadata>
Created by potrace 1.14, written by Peter Selinger 2001-2017
</metadata>
<g transform="translate(0.000000,1024.000000) scale(0.100000,-0.100000)"
fill="#000000" stroke="none">
<path d="M6205 7169 c-285 -23 -490 -110 -845 -360 -25 -17 -46 -35 -48 -40
-2 -5 -8 -9 -13 -9 -6 0 -15 -5 -22 -10 -14 -12 -105 -78 -137 -100 -13 -8
-48 -33 -79 -56 -149 -107 -421 -301 -461 -328 -25 -16 -47 -33 -50 -36 -3 -3
-21 -17 -40 -30 -19 -14 -39 -28 -45 -32 -213 -164 -246 -202 -550 -643 -27
-38 -63 -90 -80 -115 -341 -489 -575 -831 -575 -839 0 -5 22 -23 49 -39 26
-17 72 -51 102 -76 79 -68 77 -67 129 -92 146 -71 465 -82 649 -23 61 19 147
76 226 147 36 33 143 100 207 130 77 36 129 54 193 67 17 3 44 10 62 15 18 4
124 8 237 8 161 0 221 -3 287 -18 180 -39 298 -100 468 -239 135 -110 232
-141 456 -146 233 -5 375 34 490 137 90 80 234 170 310 194 6 2 44 15 85 29
41 14 97 28 124 31 47 5 104 22 79 23 -6 1 -18 7 -25 14 -7 6 -42 32 -78 57
-36 24 -69 48 -75 53 -5 4 -80 57 -165 117 -85 59 -173 122 -195 138 -22 16
-182 129 -355 252 -173 123 -366 259 -428 304 -62 44 -109 83 -105 87 42 38
240 170 276 184 49 19 127 17 206 -5 20 -5 90 -21 156 -36 66 -14 147 -32 180
-39 60 -14 628 -139 675 -149 14 -3 68 -14 120 -26 147 -33 280 -29 383 11
126 49 239 135 307 234 27 40 68 123 76 154 2 9 8 34 13 56 48 196 -21 418
-178 576 -91 91 -221 151 -396 183 -11 2 -85 18 -165 36 -80 17 -156 34 -170
36 -14 3 -53 11 -87 19 -117 28 -188 44 -248 56 -33 7 -62 13 -65 14 -3 1 -23
5 -45 9 -22 4 -62 14 -90 21 -27 8 -66 17 -85 20 -31 5 -73 15 -145 31 -74 18
-192 35 -265 40 -36 2 -83 5 -105 7 -22 2 -80 0 -130 -4z"/>
<path d="M2316 7158 c-233 -31 -431 -138 -618 -333 -27 -27 -60 -68 -75 -90
-14 -22 -34 -51 -43 -65 -29 -43 -66 -121 -89 -189 -20 -58 -27 -88 -47 -196
-8 -43 -8 -232 1 -285 16 -109 49 -220 86 -290 11 -19 19 -39 19 -43 0 -8 62
-101 100 -151 24 -31 121 -128 165 -165 114 -96 284 -181 410 -205 17 -4 41
-9 55 -12 52 -12 293 -10 363 3 266 50 472 182 643 410 137 183 194 369 189
618 -4 230 -54 388 -178 560 -27 39 -57 78 -66 87 -85 89 -117 117 -186 168
-122 87 -237 138 -380 166 -91 18 -262 24 -349 12z"/>
<path d="M2419 4280 c-86 -28 -210 -97 -244 -135 -26 -30 -117 -96 -175 -128
-76 -42 -221 -91 -300 -102 -30 -4 -64 -9 -75 -12 -11 -2 -112 -6 -225 -8
-113 -2 -215 -7 -228 -10 -47 -12 -101 -57 -124 -104 -21 -44 -22 -57 -22
-286 0 -132 4 -257 8 -278 11 -60 79 -122 147 -136 48 -10 406 -8 494 3 232
27 410 74 590 153 86 37 254 129 270 147 30 33 127 96 138 90 6 -5 40 -29 74
-56 153 -118 413 -237 627 -287 89 -21 140 -29 276 -47 78 -10 351 -12 440 -3
118 11 184 19 200 24 8 2 26 6 40 9 14 3 34 7 45 10 11 2 40 9 65 15 117 27
371 130 429 173 13 10 28 18 33 18 10 0 43 22 146 99 l72 54 73 -56 c142 -109
339 -207 532 -266 55 -17 111 -33 125 -36 14 -2 45 -9 70 -14 55 -11 130 -21
235 -30 89 -8 413 -6 442 3 10 3 45 8 78 12 33 3 96 14 140 25 44 10 91 20
105 23 14 2 25 5 25 6 0 1 7 3 15 5 117 27 405 165 507 244 16 11 45 34 67 51
21 16 41 30 43 30 3 0 33 -22 67 -49 177 -141 488 -278 716 -316 19 -3 42 -8
50 -10 8 -2 42 -7 75 -11 33 -3 69 -8 80 -11 11 -2 119 -6 240 -8 260 -5 291
1 350 60 56 55 63 97 60 376 -1 211 -3 228 -24 271 -35 74 -91 104 -196 107
-38 1 -135 3 -215 5 -158 5 -235 15 -350 46 -79 22 -217 85 -260 119 -14 11
-54 43 -90 72 -116 92 -191 134 -276 155 -39 10 -410 11 -452 1 -46 -11 -172
-68 -172 -78 0 -5 -5 -9 -11 -9 -8 0 -85 -56 -109 -80 -59 -59 -187 -131 -298
-169 -232 -78 -648 -73 -860 10 -89 36 -184 93 -274 166 -183 148 -252 171
-513 171 -174 0 -188 -1 -263 -27 -82 -28 -154 -69 -210 -121 -18 -16 -37 -30
-43 -30 -5 0 -9 -4 -9 -9 0 -15 -138 -101 -212 -132 -158 -65 -292 -87 -515
-83 -76 1 -169 7 -208 13 -92 16 -188 40 -200 52 -5 5 -16 9 -25 9 -22 0 -151
69 -195 105 -54 43 -117 94 -141 114 -28 24 -143 81 -164 81 -9 0 -22 6 -28
13 -10 9 -70 13 -220 14 -178 2 -215 -1 -263 -17z"/>
</g>
</svg>
